####
#
# OBJ File Generated by Meshlab
#
####
# Object windows.obj
#
# Vertices: 64
# Faces: 32
#
####
mtllib ./windows.obj.mtl

vn -1.262405 -0.934739 -0.000000
v -16.135881 5.596177 12.950116 0.752941 0.752941 0.752941
vn -1.262404 -0.934739 -0.000000
v -13.938677 2.628759 12.950116 0.752941 0.752941 0.752941
vn -1.262404 -0.934739 -0.000000
v -16.135885 5.596174 81.106026 0.752941 0.752941 0.752941
vn -1.262404 -0.934739 -0.000000
v -13.938680 2.628757 81.106026 0.752941 0.752941 0.752941
vn -1.484333 -0.513960 -0.000000
v -13.758758 2.543372 12.950116 0.752941 0.752941 0.752941
vn -1.484334 -0.513960 -0.000000
v -12.989222 0.320926 12.950116 0.752941 0.752941 0.752941
vn -1.484334 -0.513960 -0.000000
v -13.758761 2.543369 81.106026 0.752941 0.752941 0.752941
vn -1.484334 -0.513960 -0.000000
v -12.989226 0.320923 81.106026 0.752941 0.752941 0.752941
vn 0.513959 1.484334 0.000000
v -10.310815 -0.890461 12.950116 0.752941 0.752941 0.752941
vn 0.513959 1.484334 0.000000
v -12.533261 -0.120926 12.950116 0.752941 0.752941 0.752941
vn 0.513959 1.484334 0.000000
v -10.310815 -0.890462 81.106026 0.752941 0.752941 0.752941
vn 0.513959 1.484334 0.000000
v -12.533261 -0.120926 81.106026 0.752941 0.752941 0.752941
vn 0.934739 1.262405 0.000000
v -7.253972 -3.303817 12.950116 0.752941 0.752941 0.752941
vn 0.934739 1.262404 0.000000
v -10.221390 -1.106612 12.950116 0.752941 0.752941 0.752941
vn 0.934739 1.262404 0.000000
v -7.253972 -3.303818 81.106026 0.752941 0.752941 0.752941
vn 0.934739 1.262405 0.000000
v -10.221390 -1.106614 81.106026 0.752941 0.752941 0.752941
vn 1.262405 -0.934738 0.000000
v -16.135881 5.915081 12.950116 0.752941 0.752941 0.752941
vn 1.262405 -0.934738 0.000000
v -13.938678 8.882500 12.950116 0.752941 0.752941 0.752941
vn 1.262404 -0.934739 0.000000
v -16.135885 5.915081 81.106026 0.752941 0.752941 0.752941
vn 1.262404 -0.934739 0.000000
v -13.938680 8.882500 81.106026 0.752941 0.752941 0.752941
vn 1.484334 -0.513959 0.000000
v -13.758758 8.967887 12.950116 0.752941 0.752941 0.752941
vn 1.484334 -0.513959 0.000000
v -12.989223 11.190333 12.950116 0.752941 0.752941 0.752941
vn 1.484333 -0.513961 0.000000
v -13.758760 8.967887 81.106026 0.752941 0.752941 0.752941
vn 1.484333 -0.513961 0.000000
v -12.989223 11.190333 81.106026 0.752941 0.752941 0.752941
vn -0.513958 1.484334 0.000000
v -10.310815 12.401716 12.950116 0.752941 0.752941 0.752941
vn -0.513958 1.484334 0.000000
v -12.533261 11.632182 12.950116 0.752941 0.752941 0.752941
vn -0.513958 1.484334 0.000000
v -10.310815 12.401720 81.106026 0.752941 0.752941 0.752941
vn -0.513958 1.484334 0.000000
v -12.533261 11.632186 81.106026 0.752941 0.752941 0.752941
vn -0.934738 1.262405 0.000000
v -7.253972 14.815073 12.950116 0.752941 0.752941 0.752941
vn -0.934738 1.262405 0.000000
v -10.221392 12.617869 12.950116 0.752941 0.752941 0.752941
vn -0.934738 1.262405 0.000000
v -7.253973 14.815074 81.106026 0.752941 0.752941 0.752941
vn -0.934738 1.262405 0.000000
v -10.221393 12.617871 81.106026 0.752941 0.752941 0.752941
vn -1.262405 0.934739 0.000000
v 1.912304 5.596178 12.950116 0.752941 0.752941 0.752941
vn -1.262404 0.934739 0.000000
v -0.284901 2.628759 12.950116 0.752941 0.752941 0.752941
vn -1.262404 0.934739 0.000000
v 1.912306 5.596174 81.106026 0.752941 0.752941 0.752941
vn -1.262405 0.934739 0.000000
v -0.284899 2.628756 81.106026 0.752941 0.752941 0.752941
vn -1.484334 0.513959 0.000000
v -0.464820 2.543372 12.950116 0.752941 0.752941 0.752941
vn -1.484334 0.513960 0.000000
v -1.234355 0.320926 12.950116 0.752941 0.752941 0.752941
vn -1.484334 0.513960 0.000000
v -0.464817 2.543369 81.106026 0.752941 0.752941 0.752941
vn -1.484334 0.513960 0.000000
v -1.234353 0.320923 81.106026 0.752941 0.752941 0.752941
vn 0.513959 -1.484334 0.000000
v -3.912762 -0.890461 12.950116 0.752941 0.752941 0.752941
vn 0.513959 -1.484334 0.000000
v -1.690317 -0.120926 12.950116 0.752941 0.752941 0.752941
vn 0.513960 -1.484334 0.000000
v -3.912762 -0.890462 81.106026 0.752941 0.752941 0.752941
vn 0.513959 -1.484334 0.000000
v -1.690317 -0.120926 81.106026 0.752941 0.752941 0.752941
vn 0.934739 -1.262405 0.000000
v -6.969605 -3.303817 12.950116 0.752941 0.752941 0.752941
vn 0.934739 -1.262404 0.000000
v -4.002187 -1.106612 12.950116 0.752941 0.752941 0.752941
vn 0.934739 -1.262404 0.000000
v -6.969605 -3.303818 81.106026 0.752941 0.752941 0.752941
vn 0.934739 -1.262405 0.000000
v -4.002187 -1.106613 81.106026 0.752941 0.752941 0.752941
vn 1.262405 0.934739 0.000000
v 1.912305 5.915082 12.950116 0.752941 0.752941 0.752941
vn 1.262404 0.934739 0.000000
v -0.284900 8.882500 12.950116 0.752941 0.752941 0.752941
vn 1.262404 0.934739 0.000000
v 1.912306 5.915082 81.106026 0.752941 0.752941 0.752941
vn 1.262405 0.934739 0.000000
v -0.284899 8.882500 81.106026 0.752941 0.752941 0.752941
vn 1.484334 0.513959 0.000000
v -0.464819 8.967887 12.950116 0.752941 0.752941 0.752941
vn 1.484334 0.513959 0.000000
v -1.234354 11.190333 12.950116 0.752941 0.752941 0.752941
vn 1.484334 0.513960 0.000000
v -0.464818 8.967887 81.106026 0.752941 0.752941 0.752941
vn 1.484334 0.513959 0.000000
v -1.234354 11.190333 81.106026 0.752941 0.752941 0.752941
vn -0.934738 -1.262405 0.000000
v -6.969605 14.815074 12.950116 0.752941 0.752941 0.752941
vn -0.934738 -1.262405 0.000000
v -4.002185 12.617871 12.950116 0.752941 0.752941 0.752941
vn -0.934738 -1.262405 0.000000
v -6.969605 14.815076 81.106026 0.752941 0.752941 0.752941
vn -0.934739 -1.262405 0.000000
v -4.002185 12.617871 81.106026 0.752941 0.752941 0.752941
vn -0.513958 -1.484334 0.000000
v -3.912762 12.401715 12.950116 0.752941 0.752941 0.752941
vn -0.513958 -1.484334 0.000000
v -1.690316 11.632182 12.950116 0.752941 0.752941 0.752941
vn -0.513958 -1.484334 0.000000
v -3.912762 12.401720 81.106026 0.752941 0.752941 0.752941
vn -0.513958 -1.484334 0.000000
v -1.690316 11.632186 81.106026 0.752941 0.752941 0.752941
# 64 vertices, 0 vertices normals


usemtl material_0
f 1//1 2//2 4//4
f 4//4 3//3 1//1
f 5//5 6//6 8//8
f 8//8 7//7 5//5
f 9//9 10//10 12//12
f 12//12 11//11 9//9
f 13//13 14//14 16//16
f 16//16 15//15 13//13
f 17//17 18//18 20//20
f 20//20 19//19 17//17
f 21//21 22//22 24//24
f 24//24 23//23 21//21
f 25//25 26//26 28//28
f 28//28 27//27 25//25
f 29//29 30//30 32//32
f 32//32 31//31 29//29
f 33//33 34//34 36//36
f 36//36 35//35 33//33
f 37//37 38//38 40//40
f 40//40 39//39 37//37
f 41//41 42//42 44//44
f 44//44 43//43 41//41
f 45//45 46//46 48//48
f 48//48 47//47 45//45
f 49//49 50//50 52//52
f 52//52 51//51 49//49
f 53//53 54//54 56//56
f 56//56 55//55 53//53
f 57//57 58//58 60//60
f 60//60 59//59 57//57
f 61//61 62//62 64//64
f 64//64 63//63 61//61
# 32 faces, 0 coords texture

# End of File
